<?xml version="1.0" standalone="no"?><!DOCTYPE svg PUBLIC "-//W3C//DTD SVG 1.1//EN" "http://www.w3.org/Graphics/SVG/1.1/DTD/svg11.dtd"><svg t="1706064024575" class="icon" viewBox="0 0 1024 1024" version="1.1" xmlns="http://www.w3.org/2000/svg" p-id="4453" xmlns:xlink="http://www.w3.org/1999/xlink" width="200" height="200"><path d="M415.232 645.632a46.336 46.336 0 1 0 65.536 65.536l166.4-166.4a46.336 46.336 0 0 0 0-65.536L480.768 312.832a46.336 46.336 0 1 0-65.536 65.536L548.864 512l-133.632 133.632z" fill="#E5E6EB" p-id="4454"></path><path d="M512 972.8a460.8 460.8 0 1 1 0-921.6 460.8 460.8 0 0 1 0 921.6z m368.64-460.8a368.64 368.64 0 1 0-737.28 0 368.64 368.64 0 0 0 737.28 0z" fill="#E5E6EB" p-id="4455"></path></svg>