<?xml version="1.0" standalone="no"?><!DOCTYPE svg PUBLIC "-//W3C//DTD SVG 1.1//EN" "http://www.w3.org/Graphics/SVG/1.1/DTD/svg11.dtd"><svg t="1706063935370" class="icon" viewBox="0 0 1024 1024" version="1.1" xmlns="http://www.w3.org/2000/svg" p-id="4317" xmlns:xlink="http://www.w3.org/1999/xlink" width="200" height="200"><path d="M512 921.6a409.6 409.6 0 1 0 0-819.2 409.6 409.6 0 1 0 0 819.2z" fill="#4E5969" p-id="4318"></path><path d="M512 880.64a368.64 368.64 0 1 0 0-737.28 368.64 368.64 0 0 0 0 737.28z m460.8-368.64a460.8 460.8 0 1 1-921.6 0 460.8 460.8 0 0 1 921.6 0z" fill="#E5E6EB" p-id="4319"></path><path d="M428.032 711.168a46.336 46.336 0 0 1 0-65.536L561.664 512 428.032 378.368a46.336 46.336 0 1 1 65.536-65.536l166.4 166.4a46.336 46.336 0 0 1 0 65.536l-166.4 166.4a46.336 46.336 0 0 1-65.536 0z" fill="#E5E6EB" p-id="4320"></path></svg>