<?xml version="1.0" standalone="no"?><!DOCTYPE svg PUBLIC "-//W3C//DTD SVG 1.1//EN" "http://www.w3.org/Graphics/SVG/1.1/DTD/svg11.dtd"><svg t="1706064048504" class="icon" viewBox="0 0 1024 1024" version="1.1" xmlns="http://www.w3.org/2000/svg" p-id="4588" xmlns:xlink="http://www.w3.org/1999/xlink" width="200" height="200"><path d="M378.368 415.232a46.336 46.336 0 0 0-65.536 65.536l166.4 166.4a46.336 46.336 0 0 0 65.536 0l166.4-166.4a46.336 46.336 0 1 0-65.536-65.536L512 548.864 378.368 415.232z" fill="#E5E6EB" p-id="4589"></path><path d="M51.2 512a460.8 460.8 0 1 1 921.6 0 460.8 460.8 0 0 1-921.6 0z m460.8 368.64a368.64 368.64 0 1 0 0-737.28 368.64 368.64 0 0 0 0 737.28z" fill="#E5E6EB" p-id="4590"></path></svg>